# Blender v2.78 (sub 0) OBJ File: ''
# www.blender.org
o Plane
v 0.644352 -0.732418 -0.817429
v -0.832337 -0.732418 -0.599173
v 0.773524 -0.732418 0.681531
v -0.872425 -0.732418 0.734981
v 0.001773 -0.732418 1.051230
v -0.979326 -0.732418 -0.045678
v -0.060586 -0.732418 -0.830792
v 1.054139 -0.732418 -0.001136
v 0.838651 2.644144 -0.680267
v -0.396660 2.644144 -0.497687
v 0.946709 2.644144 0.573674
v -0.430195 2.644144 0.618388
v 0.301107 2.644144 0.882943
v -0.519622 2.644144 -0.034666
v 0.248941 2.644144 -0.691446
v 1.181455 2.644144 0.002595
v 0.556306 5.745887 -0.854646
v -0.528325 5.745887 -0.694336
v 0.651184 5.745887 0.246344
v -0.557770 5.745887 0.285603
v 0.084331 5.745887 0.517889
v -0.636289 5.745887 -0.287793
v 0.038528 5.745887 -0.864461
v 0.857296 5.745887 -0.255077
v 0.441967 9.336825 -0.713179
v -0.393711 9.336825 -0.589665
v 0.515067 9.336825 0.135102
v -0.416397 9.336825 0.165350
v 0.078323 9.336825 0.344319
v -0.476894 9.336825 -0.276435
v 0.043033 9.336825 -0.720741
v 0.673871 9.336825 -0.251228
v 0.104972 12.273169 -0.291601
v 0.001773 -0.732418 1.051230
v 0.301107 2.644144 0.882943
v -0.060586 -0.732418 -0.830792
v -0.832337 -0.732418 -0.599173
v 1.054139 -0.732418 -0.001136
v 0.644352 -0.732418 -0.817429
v -0.979326 -0.732418 -0.045678
v -0.872425 -0.732418 0.734981
v 0.001773 -0.732418 1.051230
v 0.773524 -0.732418 0.681531
v 0.248941 2.644144 -0.691446
v 0.248941 2.644144 -0.691446
v 0.248941 2.644144 -0.691446
v -0.396660 2.644144 -0.497687
v -0.396660 2.644144 -0.497687
v -0.396660 2.644144 -0.497687
v 1.181455 2.644144 0.002595
v 1.181455 2.644144 0.002595
v 1.181455 2.644144 0.002595
v 0.838651 2.644144 -0.680267
v 0.838651 2.644144 -0.680267
v 0.838651 2.644144 -0.680267
v -0.519622 2.644144 -0.034666
v -0.519622 2.644144 -0.034666
v -0.519622 2.644144 -0.034666
v -0.430195 2.644144 0.618388
v -0.430195 2.644144 0.618388
v -0.430195 2.644144 0.618388
v 0.301107 2.644144 0.882943
v 0.301107 2.644144 0.882943
v 0.301107 2.644144 0.882943
v 0.946709 2.644144 0.573674
v 0.946709 2.644144 0.573674
v 0.946709 2.644144 0.573674
v 0.038528 5.745887 -0.864461
v 0.038528 5.745887 -0.864461
v 0.038528 5.745887 -0.864461
v -0.528325 5.745887 -0.694336
v -0.528325 5.745887 -0.694336
v -0.528325 5.745887 -0.694336
v 0.857296 5.745887 -0.255077
v 0.857296 5.745887 -0.255077
v 0.857296 5.745887 -0.255077
v 0.556306 5.745887 -0.854646
v 0.556306 5.745887 -0.854646
v 0.556306 5.745887 -0.854646
v -0.636289 5.745887 -0.287793
v -0.636289 5.745887 -0.287793
v -0.636289 5.745887 -0.287793
v -0.557770 5.745887 0.285603
v -0.557770 5.745887 0.285603
v -0.557770 5.745887 0.285603
v 0.084331 5.745887 0.517889
v 0.084331 5.745887 0.517889
v 0.084331 5.745887 0.517889
v 0.651184 5.745887 0.246344
v 0.651184 5.745887 0.246344
v 0.651184 5.745887 0.246344
v 0.043033 9.336825 -0.720741
v 0.043033 9.336825 -0.720741
v 0.043033 9.336825 -0.720741
v -0.393711 9.336825 -0.589665
v -0.393711 9.336825 -0.589665
v -0.393711 9.336825 -0.589665
v 0.673871 9.336825 -0.251228
v 0.673871 9.336825 -0.251228
v 0.673871 9.336825 -0.251228
v 0.441967 9.336825 -0.713179
v 0.441967 9.336825 -0.713179
v 0.441967 9.336825 -0.713179
v -0.476894 9.336825 -0.276435
v -0.476894 9.336825 -0.276435
v -0.476894 9.336825 -0.276435
v -0.416397 9.336825 0.165350
v -0.416397 9.336825 0.165350
v -0.416397 9.336825 0.165350
v 0.078323 9.336825 0.344319
v 0.078323 9.336825 0.344319
v 0.078323 9.336825 0.344319
v 0.515067 9.336825 0.135102
v 0.515067 9.336825 0.135102
v 0.515067 9.336825 0.135102
v 0.104972 12.273169 -0.291601
v 0.104972 12.273169 -0.291601
v 0.104972 12.273169 -0.291601
v 0.104972 12.273169 -0.291601
v 0.104972 12.273169 -0.291601
v 0.104972 12.273169 -0.291601
v 0.104972 12.273169 -0.291601
vt 0.2724 0.2278
vt 0.2017 0.2257
vt 0.2661 0.0000
vt 0.4321 0.2614
vt 0.3993 0.4988
vt 0.3335 0.2636
vt 0.8171 0.9965
vt 0.7148 0.7378
vt 0.7944 0.7366
vt 0.2255 0.9983
vt 0.3264 0.7412
vt 0.3335 0.9980
vt 0.1007 0.9944
vt 0.0474 0.7321
vt 0.1316 0.7382
vt 0.3383 0.0049
vt 0.4321 0.2614
vt 0.3335 0.2636
vt 0.8425 0.9984
vt 0.9489 0.7406
vt 1.0000 1.0000
vt 0.5910 0.9980
vt 0.7148 0.7378
vt 0.7220 0.9980
vt 0.4562 0.0022
vt 0.5449 0.2596
vt 0.4321 0.2614
vt 0.1007 0.9944
vt 0.2360 0.7414
vt 0.2255 0.9983
vt 0.9489 0.7406
vt 0.8843 0.5019
vt 1.0000 0.5030
vt 0.7148 0.7378
vt 0.6510 0.5020
vt 0.7472 0.5020
vt 0.5449 0.2596
vt 0.4860 0.4968
vt 0.4321 0.2614
vt 0.1316 0.7382
vt 0.2397 0.5021
vt 0.2360 0.7414
vt 0.7944 0.7366
vt 0.7472 0.5020
vt 0.8171 0.5009
vt 0.3264 0.7412
vt 0.2397 0.5021
vt 0.3190 0.5020
vt 0.0474 0.7321
vt 0.1481 0.4993
vt 0.1316 0.7382
vt 0.3190 0.5020
vt 0.2724 0.2278
vt 0.3335 0.2277
vt 0.0741 0.4940
vt 0.2017 0.2257
vt 0.1481 0.4993
vt 0.4860 0.4968
vt 0.4480 0.7728
vt 0.3993 0.4988
vt 0.8843 0.5019
vt 0.9978 0.2286
vt 1.0000 0.5030
vt 0.7472 0.5020
vt 0.6622 0.2275
vt 0.7363 0.2274
vt 0.4860 0.4968
vt 0.5910 0.7701
vt 0.5147 0.7713
vt 0.2397 0.5021
vt 0.2017 0.2257
vt 0.2724 0.2278
vt 0.7472 0.5020
vt 0.7901 0.2266
vt 0.8171 0.5009
vt 0.7901 0.2266
vt 0.7363 0.2274
vt 0.7361 0.0000
vt 0.3335 0.2277
vt 0.2724 0.2278
vt 0.2661 0.0000
vt 0.2017 0.2257
vt 0.1448 0.2215
vt 0.2661 0.0000
vt 0.4480 0.7728
vt 0.5147 0.7713
vt 0.5357 0.9968
vt 0.9978 0.2286
vt 0.9086 0.2277
vt 0.9522 0.0000
vt 0.7363 0.2274
vt 0.6622 0.2275
vt 0.7361 0.0000
vt 0.5147 0.7713
vt 0.5910 0.7701
vt 0.5357 0.9968
vt 0.4860 0.4968
vt 0.7220 0.9980
vt 0.2360 0.7414
vt 0.0000 0.9871
vt 0.4562 0.0022
vt 0.8171 0.7393
vt 0.6052 0.7378
vt 0.5910 0.0000
vt 0.1316 0.7382
vt 0.8171 0.7393
vt 0.6052 0.7378
vt 0.5850 0.4952
vt 0.1481 0.4993
vt 0.7148 0.7378
vt 0.2360 0.7414
vt 0.0741 0.4940
vt 0.2397 0.5021
vt 0.1448 0.2215
vt 0.5147 0.7713
vt 0.9086 0.2277
vt 0.6510 0.5020
vt 0.5850 0.4952
vt 0.1481 0.4993
vt 0.7363 0.2274
vn 0.9096 0.1814 0.3739
vn 0.0189 -0.0544 -0.9983
vn -0.9581 0.1313 -0.2544
vn 0.4320 0.0066 0.9018
vn 0.8932 -0.0332 -0.4484
vn 0.0189 0.0395 -0.9990
vn -0.3392 0.0768 0.9376
vn -0.9819 0.1332 0.1345
vn -0.2868 0.0657 -0.9557
vn 0.9243 -0.0353 0.3800
vn -0.3389 0.0866 0.9368
vn -0.9904 -0.0262 0.1356
vn -0.2867 -0.0727 -0.9553
vn 0.9174 0.1272 0.3771
vn -0.9649 -0.0572 -0.2562
vn 0.4281 0.1351 0.8936
vn 0.8923 0.0560 -0.4479
vn 0.4316 0.0443 0.9010
vn 0.8928 0.0461 -0.4482
vn 0.0189 0.0400 -0.9990
vn -0.3398 0.0448 0.9394
vn -0.9898 0.0435 0.1355
vn -0.2872 0.0387 -0.9571
vn 0.9239 0.0468 0.3798
vn -0.9656 0.0437 -0.2564
vn -0.9495 0.1868 -0.2521
vn 0.4243 0.1880 0.8858
vn 0.8815 0.1647 -0.4425
vn 0.0188 0.1442 -0.9894
vn -0.3331 0.2025 0.9209
vn -0.9721 0.1933 0.1331
vn -0.2844 0.1445 -0.9477
s off
f 114/1/1 99/2/1 117/3/1
f 45/4/2 78/5/2 54/6/2
f 2/7/3 57/8/3 48/9/3
f 43/10/4 62/11/4 42/12/4
f 38/13/5 53/14/5 50/15/5
f 1/16/6 46/17/6 55/18/6
f 5/19/7 60/20/7 4/21/7
f 41/22/8 56/23/8 40/24/8
f 36/25/9 47/26/9 44/27/9
f 8/28/10 66/29/10 3/30/10
f 61/31/11 87/32/11 84/33/11
f 58/34/12 83/35/12 80/36/12
f 49/37/13 68/38/13 15/39/13
f 52/40/14 90/41/14 67/42/14
f 10/43/15 81/44/15 72/45/15
f 13/46/16 89/47/16 86/48/16
f 9/49/17 74/50/17 16/51/17
f 88/52/18 113/53/18 110/54/18
f 79/55/19 98/56/19 76/57/19
f 70/58/20 102/59/20 17/60/20
f 21/61/21 108/62/21 85/63/21
f 82/64/22 107/65/22 104/66/22
f 23/67/23 95/68/23 92/69/23
f 19/70/24 100/71/24 115/72/24
f 22/73/25 96/74/25 18/75/25
f 97/76/26 106/77/26 118/78/26
f 112/79/27 27/80/27 119/81/27
f 32/82/28 103/83/28 116/84/28
f 25/85/29 94/86/29 120/87/29
f 109/88/30 29/89/30 121/90/30
f 30/91/31 28/92/31 33/93/31
f 31/94/32 26/95/32 122/96/32
f 45/4/2 69/97/2 78/5/2
f 2/7/3 6/98/3 57/8/3
f 43/10/4 65/99/4 62/11/4
f 38/13/5 39/100/5 53/14/5
f 1/16/6 7/101/6 46/17/6
f 5/19/7 63/102/7 60/20/7
f 41/22/8 59/103/8 56/23/8
f 36/25/9 37/104/9 47/26/9
f 8/28/10 51/105/10 66/29/10
f 61/31/11 64/106/11 87/32/11
f 58/34/12 12/107/12 83/35/12
f 49/37/13 71/108/13 68/38/13
f 52/40/14 75/109/14 90/41/14
f 10/43/15 14/110/15 81/44/15
f 13/46/16 11/111/16 89/47/16
f 9/49/17 77/112/17 74/50/17
f 88/52/18 91/113/18 113/53/18
f 79/55/19 101/114/19 98/56/19
f 70/58/20 93/115/20 102/59/20
f 21/61/21 111/116/21 108/62/21
f 82/64/22 20/117/22 107/65/22
f 23/67/23 73/118/23 95/68/23
f 19/70/24 24/119/24 100/71/24
f 22/73/25 105/120/25 96/74/25
