# Blender v2.78 (sub 0) OBJ File: ''
# www.blender.org
o Plane
v 0.515067 9.336825 0.135104
v 0.673871 9.336825 -0.251226
v 0.104972 12.273169 -0.291599
v 0.838651 2.644144 -0.680267
v 0.248941 2.644144 -0.691446
v 0.038528 5.745887 -0.864460
v 0.556306 5.745887 -0.854645
v -0.832337 -0.732418 -0.599173
v -0.979326 -0.732418 -0.045678
v -0.519622 2.644144 -0.034666
v -0.396660 2.644144 -0.497687
v 0.001773 -0.732418 1.051230
v 0.773524 -0.732418 0.681531
v 0.946709 2.644144 0.573674
v 0.301107 2.644144 0.882943
v 1.054139 -0.732418 -0.001136
v 0.644352 -0.732418 -0.817429
v 1.181455 2.644144 0.002595
v -0.060586 -0.732418 -0.830792
v -0.872425 -0.732418 0.734981
v -0.430195 2.644144 0.618388
v 0.084331 5.745887 0.517890
v -0.557770 5.745887 0.285604
v -0.636289 5.745887 -0.287792
v -0.528325 5.745887 -0.694335
v 0.857296 5.745887 -0.255076
v 0.651184 5.745887 0.246345
v 0.078323 9.336825 0.344321
v 0.441967 9.336825 -0.713177
v 0.043033 9.336825 -0.720739
v -0.416397 9.336825 0.165352
v -0.476894 9.336825 -0.276433
v -0.393711 9.336825 -0.589663
v 0.301107 2.644144 0.882943
v 0.001773 -0.732418 1.051230
vt 0.4875 0.5613
vt 0.4934 0.4901
vt 0.5695 0.5350
vt 0.6875 0.1318
vt 0.5089 0.3159
vt 0.3763 0.1345
vt 0.9194 0.3465
vt 0.7824 0.7799
vt 0.8242 0.3910
vt 0.0001 0.4647
vt 0.3367 0.7531
vt 0.0263 0.7612
vt 0.0016 0.0790
vt 0.1809 0.2467
vt 0.3440 0.0001
vt 0.2514 0.9786
vt 0.4677 0.8692
vt 0.4508 0.9999
vt 0.9194 0.9759
vt 0.8641 0.0102
vt 0.2430 0.4591
vt 0.5182 0.7481
vt 0.6562 0.7436
vt 0.7266 0.6980
vt 0.5744 0.3028
vt 0.3605 0.5060
vt 0.7017 0.4322
vt 0.4444 0.3490
vt 0.5445 0.6120
vt 0.5426 0.4565
vt 0.5943 0.6188
vt 0.6300 0.5900
vt 0.6466 0.4919
vt 0.5843 0.4552
vn 0.9096 0.1814 0.3739
vn 0.0189 -0.0544 -0.9983
vn -0.9581 0.1313 -0.2544
vn 0.4320 0.0066 0.9018
vn 0.8932 -0.0332 -0.4484
vn 0.0189 0.0395 -0.9990
vn -0.3392 0.0768 0.9376
vn -0.3390 0.0816 0.9372
vn -0.9819 0.1332 0.1345
vn -0.2868 0.0657 -0.9557
vn 0.9243 -0.0353 0.3800
vn -0.3389 0.0866 0.9368
vn -0.9904 -0.0262 0.1356
vn -0.2867 -0.0727 -0.9553
vn 0.9174 0.1272 0.3771
vn -0.9649 -0.0572 -0.2562
vn 0.4281 0.1351 0.8936
vn 0.8923 0.0560 -0.4479
vn 0.8929 0.0463 -0.4478
vn 0.4316 0.0443 0.9010
vn 0.8927 0.0558 -0.4472
vn 0.8928 0.0461 -0.4482
vn 0.0189 0.0400 -0.9990
vn -0.3398 0.0448 0.9394
vn -0.9898 0.0435 0.1355
vn -0.2872 0.0387 -0.9571
vn 0.9239 0.0468 0.3798
vn -0.9656 0.0437 -0.2564
vn -0.9495 0.1868 -0.2521
vn 0.4243 0.1880 0.8858
vn 0.8815 0.1647 -0.4425
vn 0.0188 0.1442 -0.9894
vn -0.3331 0.2025 0.9209
vn -0.9721 0.1933 0.1331
vn -0.2844 0.1445 -0.9477
s 1
f 1/1/1 2/2/1 3/3/1
f 5/4/2 7/5/2 4/6/2
f 8/7/3 10/8/3 11/9/3
f 13/10/4 15/11/4 12/12/4
f 16/13/5 4/6/5 18/14/5
f 17/15/6 5/4/6 4/6/6
f 12/16/7 21/17/8 20/18/7
f 20/18/9 10/8/9 9/19/9
f 19/20/10 11/9/10 5/4/10
f 16/13/11 14/21/11 13/10/11
f 21/17/8 22/22/12 23/23/12
f 10/8/13 23/23/13 24/24/13
f 11/9/14 6/25/14 5/4/14
f 18/14/15 27/26/15 14/21/15
f 11/9/16 24/24/16 25/27/16
f 15/11/17 27/26/17 22/22/17
f 4/6/18 26/28/19 18/14/18
f 22/22/20 1/1/20 28/29/20
f 7/5/21 2/2/22 26/28/19
f 6/25/23 29/30/23 7/5/23
f 22/22/24 31/31/24 23/23/24
f 24/24/25 31/31/25 32/32/25
f 6/25/26 33/33/26 30/34/26
f 27/26/27 2/2/27 1/1/27
f 24/24/28 33/33/28 25/27/28
f 33/33/29 32/32/29 3/3/29
f 28/29/30 1/1/30 3/3/30
f 2/2/31 29/30/31 3/3/31
f 29/30/32 30/34/32 3/3/32
f 31/31/33 28/29/33 3/3/33
f 32/32/34 31/31/34 3/3/34
f 30/34/35 33/33/35 3/3/35
f 5/4/2 6/25/2 7/5/2
f 8/7/3 9/19/3 10/8/3
f 13/10/4 14/21/4 15/11/4
f 16/13/5 17/15/5 4/6/5
f 17/15/6 19/20/6 5/4/6
f 12/16/7 15/11/8 21/17/8
f 20/18/9 21/17/9 10/8/9
f 19/20/10 8/7/10 11/9/10
f 16/13/11 18/14/11 14/21/11
f 21/17/8 15/11/8 22/22/12
f 10/8/13 21/17/13 23/23/13
f 11/9/14 25/27/14 6/25/14
f 18/14/15 26/28/15 27/26/15
f 11/9/16 10/8/16 24/24/16
f 15/11/17 14/21/17 27/26/17
f 4/6/18 7/5/21 26/28/19
f 22/22/20 27/26/20 1/1/20
f 7/5/21 29/30/22 2/2/22
f 6/25/23 30/34/23 29/30/23
f 22/22/24 28/29/24 31/31/24
f 24/24/25 23/23/25 31/31/25
f 6/25/26 25/27/26 33/33/26
f 27/26/27 26/28/27 2/2/27
f 24/24/28 32/32/28 33/33/28
